# xmcd
#
# Track frame offsets: 
#        150
#        23708
#        45121
#        60863
#        74850
#        83710
#        104441
#        118741
#        139502
#        158410
#        168491
#        189055
#        204252
#        215331
#        234265
#        259753
#        270304
#        281728
#        301811
#        315361
#
# Disc length: 4408 seconds
#
# Revision: 0
# Processed by: cddbd v1.5.2PL0 Copyright (c) Steve Scherf et al.
# Submitted via: ExactAudioCopy v0.99pb3
#
DISCID=fb113614
DTITLE=Kyle Jester - Ain't No Way
DYEAR=2004
DGENRE=Blues
TTITLE0=3 Times A Fool
TTITLE1=Broke and Lonely
TTITLE2=Ain't No Way
TTITLE3=Roll With Me Henry
TTITLE4=L.A.
TTITLE5=I Feel Alright Again
TTITLE6=That's What You Think
TTITLE7=Automatic
TTITLE8=Straighten Up Baby
TTITLE9=Haven't Felt Good
TTITLE10=Let Me Down Easy
TTITLE11=Voodoo Woman Blues
TTITLE12=If I Had You
TTITLE13=Drivin' Wheel
TTITLE14=Easy Baby
TTITLE15=Hey Louise
TTITLE16=Love My Baby
TTITLE17=Is You Is
TTITLE18=Can't Hold Out
TTITLE19=If I Had Possession
EXTD=
EXTT0=
EXTT1=
EXTT2=
EXTT3=
EXTT4=
EXTT5=
EXTT6=
EXTT7=
EXTT8=
EXTT9=
EXTT10=
EXTT11=
EXTT12=
EXTT13=
EXTT14=
EXTT15=
EXTT16=
EXTT17=
EXTT18=
EXTT19=
PLAYORDER=
